<svg width="120" height="91" viewBox="0 0 120 91" fill="none" xmlns="http://www.w3.org/2000/svg">
<path d="M107.397 88.3021C109.671 89.66 112.634 88.9245 113.806 86.5494C117.814 78.4278 119.94 69.4842 119.999 60.3865C120.068 49.6864 117.274 39.1625 111.907 29.9055C106.54 20.6485 98.7949 12.9951 89.4746 7.73867C80.1544 2.48219 69.598 -0.186175 58.8995 0.0100941C48.2009 0.206363 37.7495 3.26013 28.6283 8.85492C19.5072 14.4497 12.0482 22.382 7.02427 31.8296C2.00039 41.2772 -0.405551 51.8965 0.0557928 62.5869C0.448047 71.6763 2.90095 80.5359 7.20356 88.5051C8.46185 90.8356 11.4499 91.4619 13.6726 90.0215C15.8952 88.5812 16.5069 85.6205 15.2842 83.2711C11.892 76.7528 9.95661 69.5532 9.63813 62.1734C9.25054 53.1919 11.2719 44.2701 15.4927 36.3328C19.7135 28.3954 25.9801 21.7311 33.6432 17.0307C41.3063 12.3302 50.0871 9.76463 59.0754 9.59974C68.0637 9.43484 76.9326 11.6767 84.763 16.0929C92.5933 20.5091 99.1002 26.939 103.609 34.7162C108.118 42.4935 110.466 51.335 110.408 60.3247C110.36 67.7113 108.69 74.977 105.539 81.6153C104.404 84.008 105.123 86.9443 107.397 88.3021Z" fill="url(#paint0_linear_13_112)"/>
<defs>
<linearGradient id="paint0_linear_13_112" x1="11" y1="89" x2="123" y2="56" gradientUnits="userSpaceOnUse">
<stop stop-color="#DD8F1B"/>
<stop offset="1" stop-color="#D8D8D8"/>
</linearGradient>
</defs>
</svg>
