<svg width="143" height="93" viewBox="0 0 143 93" fill="none" xmlns="http://www.w3.org/2000/svg">
<path d="M34.5931 56.8149V11.3892C34.5931 5.2297 28.9398 0.237061 21.9669 0.237061C14.9932 0.237061 9.34058 5.2297 9.34058 11.3892V56.8149C3.69116 60.3253 0 66.1281 0 72.6926C0 83.4082 9.8349 92.0948 21.9669 92.0948C34.0988 92.0948 43.9337 83.4082 43.9337 72.6926C43.9337 66.1281 40.2418 60.3253 34.5931 56.8149Z" fill="#D8D8D8"/>
<path d="M21.9668 85.7405C13.6014 85.7405 6.7959 79.7289 6.7959 72.3409C6.7959 66.7301 10.7433 61.7347 16.6665 59.7857V11.3892C16.6665 8.80742 19.0437 6.70776 21.9668 6.70776C24.8891 6.70776 27.2671 8.80742 27.2671 11.3892V59.7857C33.1895 61.734 37.1377 66.7294 37.1377 72.3402C37.1377 79.7289 30.3322 85.7405 21.9668 85.7405Z" fill="#EA5454" fill-opacity="0.29"/>
<path d="M16.6665 11.26V59.7857C10.7433 61.734 6.7959 66.7294 6.7959 72.3402C6.7959 79.7289 13.6014 85.7398 21.9668 85.7398C30.3322 85.7398 37.1377 79.7289 37.1377 72.3402C37.1377 66.7294 33.1895 61.734 27.2671 59.7857V11.26H16.6665Z" fill="#DD8F1B" fill-opacity="0.22"/>
<path d="M52.0809 32.57H42.976C42.1087 32.57 41.4065 31.9491 41.4065 31.1838C41.4065 30.4185 42.1087 29.7976 42.976 29.7976H52.0809C52.9473 29.7976 53.6503 30.4185 53.6503 31.1838C53.6503 31.9491 52.9473 32.57 52.0809 32.57Z" fill="#92A8B1"/>
<path d="M47.1099 21.3352H42.976C42.1087 21.3352 41.4065 20.7143 41.4065 19.949C41.4065 19.1837 42.1087 18.5627 42.976 18.5627H47.1099C47.9763 18.5627 48.6793 19.1837 48.6793 19.949C48.6793 20.7143 47.9763 21.3352 47.1099 21.3352Z" fill="#92A8B1"/>
<path d="M48.5746 10.1003H42.976C42.1087 10.1003 41.4065 9.4794 41.4065 8.7141C41.4065 7.94881 42.1087 7.32788 42.976 7.32788H48.5746C49.4418 7.32788 50.144 7.94881 50.144 8.7141C50.144 9.4794 49.4418 10.1003 48.5746 10.1003Z" fill="#92A8B1"/>
<path d="M48.5746 55.0397H42.976C42.1087 55.0397 41.4065 54.4187 41.4065 53.6534C41.4065 52.8874 42.1087 52.2672 42.976 52.2672H48.5746C49.4418 52.2672 50.144 52.8874 50.144 53.6534C50.144 54.4187 49.4418 55.0397 48.5746 55.0397Z" fill="#92A8B1"/>
<path d="M47.1099 43.8049H42.976C42.1087 43.8049 41.4065 43.184 41.4065 42.4187C41.4065 41.6534 42.1087 41.0325 42.976 41.0325H47.1099C47.9763 41.0325 48.6793 41.6534 48.6793 42.4187C48.6793 43.184 47.9763 43.8049 47.1099 43.8049Z" fill="#92A8B1"/>
<path d="M27.2671 59.7857V35.1431H16.6665V59.7857C16.6665 59.7857 6.05566 62.7887 6.05566 72.3402C6.05566 77.651 11.8581 82.9091 15.3946 84.4167C17.3838 85.2647 19.6134 85.7398 21.966 85.7398C30.3314 85.7398 37.1377 79.7289 37.1377 72.3402C37.1377 66.7294 33.1895 61.7347 27.2671 59.7857Z" fill="#DD8F1B"/>
<path d="M86.1978 53.8574V57.7026H69.1763V54.4214L77.2256 45.791C78.0345 44.891 78.6725 44.0991 79.1396 43.4155C79.6068 42.7205 79.9429 42.0996 80.1479 41.5527C80.3644 40.9945 80.4727 40.4647 80.4727 39.9634C80.4727 39.2114 80.3473 38.5677 80.0967 38.0322C79.846 37.4854 79.4757 37.0638 78.9858 36.7676C78.5073 36.4714 77.9149 36.3232 77.2085 36.3232C76.4565 36.3232 75.8071 36.5055 75.2603 36.8701C74.7248 37.2347 74.3146 37.7417 74.0298 38.3911C73.7563 39.0405 73.6196 39.7754 73.6196 40.5957H68.6807C68.6807 39.1146 69.0339 37.7588 69.7402 36.5283C70.4466 35.2865 71.4435 34.3009 72.731 33.5718C74.0184 32.8312 75.5451 32.4609 77.311 32.4609C79.0542 32.4609 80.5239 32.7458 81.7202 33.3154C82.9279 33.8737 83.8394 34.6826 84.4546 35.7422C85.0812 36.7904 85.3945 38.0436 85.3945 39.502C85.3945 40.3223 85.2635 41.1255 85.0015 41.9116C84.7394 42.6864 84.3634 43.4611 83.8735 44.2358C83.395 44.9992 82.814 45.7739 82.1304 46.5601C81.4468 47.3462 80.6891 48.1608 79.8574 49.0039L75.5337 53.8574H86.1978ZM107.406 48.4058V52.2681H89.4783L89.2391 49.2773L99.6126 32.8198H103.526L99.2879 39.9121L94.1268 48.4058H107.406ZM104.586 32.8198V57.7026H99.6639V32.8198H104.586Z" fill="#F1F1F1"/>
<path d="M127.99 52.9858H130.91C130.851 53.9429 130.588 54.7925 130.119 55.5347C129.657 56.2769 129.009 56.8563 128.176 57.2729C127.349 57.6896 126.353 57.8979 125.187 57.8979C124.276 57.8979 123.459 57.7417 122.736 57.4292C122.014 57.1102 121.395 56.6545 120.881 56.062C120.373 55.4696 119.986 54.7534 119.719 53.9136C119.452 53.0737 119.318 52.133 119.318 51.0913V50.105C119.318 49.0633 119.455 48.1226 119.728 47.2827C120.008 46.4364 120.405 45.717 120.92 45.1245C121.441 44.5321 122.062 44.0763 122.785 43.7573C123.508 43.4383 124.315 43.2788 125.207 43.2788C126.392 43.2788 127.391 43.4937 128.205 43.9233C129.025 44.353 129.66 44.9455 130.109 45.7007C130.565 46.4559 130.838 47.3153 130.93 48.2788H128C127.967 47.7059 127.853 47.2209 127.658 46.8237C127.463 46.4201 127.167 46.1174 126.769 45.9155C126.379 45.7072 125.858 45.603 125.207 45.603C124.719 45.603 124.292 45.6942 123.928 45.8765C123.563 46.0588 123.257 46.3354 123.01 46.7065C122.762 47.0776 122.577 47.5464 122.453 48.1128C122.336 48.6727 122.277 49.3302 122.277 50.0854V51.0913C122.277 51.827 122.333 52.4748 122.443 53.0347C122.554 53.5881 122.723 54.0568 122.951 54.4409C123.185 54.8185 123.485 55.105 123.85 55.3003C124.221 55.4891 124.667 55.5835 125.187 55.5835C125.799 55.5835 126.304 55.4858 126.701 55.2905C127.098 55.0952 127.401 54.8055 127.609 54.4214C127.824 54.0373 127.951 53.5588 127.99 52.9858Z" fill="#C4C4C4"/>
<path d="M120.216 39.7996C120.216 41.0553 119.097 42.0733 117.716 42.0733C116.335 42.0733 115.216 41.0553 115.216 39.7996C115.216 38.5439 116.335 37.5259 117.716 37.5259C119.097 37.5259 120.216 38.5439 120.216 39.7996ZM116.281 39.7996C116.281 40.5204 116.923 41.1048 117.716 41.1048C118.508 41.1048 119.151 40.5204 119.151 39.7996C119.151 39.0787 118.508 38.4944 117.716 38.4944C116.923 38.4944 116.281 39.0787 116.281 39.7996Z" fill="#C4C4C4"/>
</svg>
