<svg width="104" height="101" viewBox="0 0 104 101" fill="none" xmlns="http://www.w3.org/2000/svg">
<g clip-path="url(#clip0_13_89)">
<path d="M76.3774 62.2088V12.2621C76.3774 5.48953 70.724 0 63.7511 0C56.7774 0 51.1248 5.48953 51.1248 12.2621V62.2088C45.4754 66.0686 41.7842 72.4489 41.7842 79.6668C41.7842 91.4488 51.6191 101 63.7511 101C75.8831 101 85.718 91.4488 85.718 79.6668C85.718 72.4489 82.026 66.0686 76.3774 62.2088Z" fill="#D8D8D8"/>
<path d="M63.7511 94.0132C55.3857 94.0132 48.5802 87.4033 48.5802 79.28C48.5802 73.1108 52.5276 67.6182 58.4508 65.4752V12.2621C58.4508 9.42328 60.828 7.11465 63.7511 7.11465C66.6734 7.11465 69.0514 9.42328 69.0514 12.2621V65.4752C74.9738 67.6174 78.922 73.11 78.922 79.2792C78.922 87.4033 72.1165 94.0132 63.7511 94.0132Z" fill="#EA5454" fill-opacity="0.29"/>
<path d="M58.4508 12.12V65.4752C52.5276 67.6174 48.5802 73.11 48.5802 79.2792C48.5802 87.4033 55.3857 94.0125 63.7511 94.0125C72.1165 94.0125 78.922 87.4033 78.922 79.2792C78.922 73.11 74.9738 67.6174 69.0514 65.4752V12.12H58.4508Z" fill="#DD8F1B" fill-opacity="0.22"/>
<path d="M93.8652 35.5509H84.7603C83.893 35.5509 83.1908 34.8682 83.1908 34.0268C83.1908 33.1853 83.893 32.5026 84.7603 32.5026H93.8652C94.7316 32.5026 95.4346 33.1853 95.4346 34.0268C95.4346 34.8682 94.7316 35.5509 93.8652 35.5509Z" fill="#92A8B1"/>
<path d="M88.8942 23.198H84.7603C83.893 23.198 83.1908 22.5152 83.1908 21.6738C83.1908 20.8323 83.893 20.1496 84.7603 20.1496H88.8942C89.7606 20.1496 90.4636 20.8323 90.4636 21.6738C90.4636 22.5152 89.7606 23.198 88.8942 23.198Z" fill="#92A8B1"/>
<path d="M90.3589 10.845H84.7603C83.893 10.845 83.1908 10.1622 83.1908 9.32079C83.1908 8.47932 83.893 7.7966 84.7603 7.7966H90.3589C91.2261 7.7966 91.9283 8.47932 91.9283 9.32079C91.9283 10.1622 91.2261 10.845 90.3589 10.845Z" fill="#92A8B1"/>
<path d="M90.3589 60.2569H84.7603C83.893 60.2569 83.1908 59.5742 83.1908 58.7327C83.1908 57.8905 83.893 57.2086 84.7603 57.2086H90.3589C91.2261 57.2086 91.9283 57.8905 91.9283 58.7327C91.9283 59.5742 91.2261 60.2569 90.3589 60.2569Z" fill="#92A8B1"/>
<path d="M88.8942 47.9039H84.7603C83.893 47.9039 83.1908 47.2212 83.1908 46.3797C83.1908 45.5383 83.893 44.8556 84.7603 44.8556H88.8942C89.7606 44.8556 90.4636 45.5383 90.4636 46.3797C90.4636 47.2212 89.7606 47.9039 88.8942 47.9039Z" fill="#92A8B1"/>
<path d="M69.0514 65.4752V38.38H58.4508V65.4752C58.4508 65.4752 47.84 68.7771 47.84 79.2792C47.84 85.1186 53.6424 90.9 57.1789 92.5576C59.1681 93.49 61.3977 94.0125 63.7503 94.0125C72.1157 94.0125 78.922 87.4033 78.922 79.2792C78.922 73.11 74.9738 67.6182 69.0514 65.4752Z" fill="#DD8F1B"/>
</g>
<defs>
<clipPath id="clip0_13_89">
<rect width="104" height="101" fill="white"/>
</clipPath>
</defs>
</svg>
